<svg xmlns="http://www.w3.org/2000/svg" xmlns:xlink="http://www.w3.org/1999/xlink" width="392" zoomAndPan="magnify" viewBox="0 0 294 74.999997" height="100" preserveAspectRatio="xMidYMid meet" version="1.0"><defs><g/><clipPath id="id1"><path d="M 123.785156 7.902344 L 139.203125 7.902344 L 139.203125 13.976562 L 123.785156 13.976562 Z M 123.785156 7.902344 " clip-rule="nonzero"/></clipPath><clipPath id="id2"><path d="M 123.785156 22.214844 L 139.203125 22.214844 L 139.203125 28.289062 L 123.785156 28.289062 Z M 123.785156 22.214844 " clip-rule="nonzero"/></clipPath><clipPath id="id3"><path d="M 123.785156 36.660156 L 139.203125 36.660156 L 139.203125 42.738281 L 123.785156 42.738281 Z M 123.785156 36.660156 " clip-rule="nonzero"/></clipPath><clipPath id="id4"><path d="M 139.308594 52.757812 L 141.644531 52.757812 L 141.644531 68.179688 L 139.308594 68.179688 Z M 139.308594 52.757812 " clip-rule="nonzero"/></clipPath></defs><g clip-path="url(#id1)"><path fill="#ffffff" d="M 123.789062 7.902344 L 139.203125 7.902344 L 139.203125 13.976562 L 123.789062 13.976562 L 123.789062 7.902344 " fill-opacity="1" fill-rule="nonzero"/></g><g clip-path="url(#id2)"><path fill="#00c2cb" d="M 123.789062 22.214844 L 139.203125 22.214844 L 139.203125 28.289062 L 123.789062 28.289062 L 123.789062 22.214844 " fill-opacity="1" fill-rule="nonzero"/></g><g clip-path="url(#id3)"><path fill="#ffffff" d="M 123.789062 36.660156 L 139.203125 36.660156 L 139.203125 42.738281 L 123.789062 42.738281 L 123.789062 36.660156 " fill-opacity="1" fill-rule="nonzero"/></g><g fill="#ffffff" fill-opacity="1"><g transform="translate(81.496948, 41.076678)"><g><path d="M 7.4375 -20.078125 L 14.921875 -20.078125 L 14.921875 -15.125 L 7.4375 -15.125 L 7.4375 -4.953125 L 16.859375 -4.953125 L 16.859375 0 L 1.984375 0 L 1.984375 -34.703125 L 16.859375 -34.703125 L 16.859375 -29.75 L 7.4375 -29.75 Z M 7.4375 -20.078125 "/></g></g></g><g fill="#ffffff" fill-opacity="1"><g transform="translate(99.740688, 41.076678)"><g><path d="M 6.84375 -25.140625 L 6.84375 0 L 1.9375 0 L 1.9375 -34.703125 L 8.78125 -34.703125 L 14.375 -13.9375 L 14.375 -34.703125 L 19.234375 -34.703125 L 19.234375 0 L 13.640625 0 Z M 6.84375 -25.140625 "/></g></g></g><g fill="#ffffff" fill-opacity="1"><g transform="translate(143.636157, 41.076678)"><g><path d="M 13.390625 0 C 13.316406 -0.226562 13.25 -0.441406 13.1875 -0.640625 C 13.125 -0.835938 13.066406 -1.082031 13.015625 -1.375 C 12.960938 -1.675781 12.925781 -2.054688 12.90625 -2.515625 C 12.894531 -2.984375 12.890625 -3.566406 12.890625 -4.265625 L 12.890625 -9.71875 C 12.890625 -11.332031 12.609375 -12.46875 12.046875 -13.125 C 11.484375 -13.789062 10.578125 -14.125 9.328125 -14.125 L 7.4375 -14.125 L 7.4375 0 L 1.984375 0 L 1.984375 -34.703125 L 10.21875 -34.703125 C 13.0625 -34.703125 15.117188 -34.039062 16.390625 -32.71875 C 17.660156 -31.394531 18.296875 -29.394531 18.296875 -26.71875 L 18.296875 -24 C 18.296875 -20.425781 17.101562 -18.078125 14.71875 -16.953125 C 16.113281 -16.390625 17.066406 -15.472656 17.578125 -14.203125 C 18.085938 -12.929688 18.34375 -11.382812 18.34375 -9.5625 L 18.34375 -4.21875 C 18.34375 -3.351562 18.375 -2.597656 18.4375 -1.953125 C 18.507812 -1.304688 18.675781 -0.65625 18.9375 0 Z M 7.4375 -29.75 L 7.4375 -19.09375 L 9.5625 -19.09375 C 10.59375 -19.09375 11.394531 -19.351562 11.96875 -19.875 C 12.550781 -20.40625 12.84375 -21.363281 12.84375 -22.75 L 12.84375 -26.171875 C 12.84375 -27.429688 12.617188 -28.34375 12.171875 -28.90625 C 11.722656 -29.46875 11.019531 -29.75 10.0625 -29.75 Z M 7.4375 -29.75 "/></g></g></g><g fill="#ffffff" fill-opacity="1"><g transform="translate(163.56545, 41.076678)"><g><path d="M 10.15625 -19.328125 L 17.796875 -19.328125 L 17.796875 -8.328125 C 17.796875 -5.515625 17.109375 -3.359375 15.734375 -1.859375 C 14.367188 -0.359375 12.347656 0.390625 9.671875 0.390625 C 6.992188 0.390625 4.96875 -0.359375 3.59375 -1.859375 C 2.21875 -3.359375 1.53125 -5.515625 1.53125 -8.328125 L 1.53125 -26.375 C 1.53125 -29.1875 2.21875 -31.34375 3.59375 -32.84375 C 4.96875 -34.34375 6.992188 -35.09375 9.671875 -35.09375 C 12.347656 -35.09375 14.367188 -34.34375 15.734375 -32.84375 C 17.109375 -31.34375 17.796875 -29.1875 17.796875 -26.375 L 17.796875 -23 L 12.640625 -23 L 12.640625 -26.71875 C 12.640625 -27.976562 12.382812 -28.863281 11.875 -29.375 C 11.363281 -29.882812 10.675781 -30.140625 9.8125 -30.140625 C 8.957031 -30.140625 8.269531 -29.882812 7.75 -29.375 C 7.238281 -28.863281 6.984375 -27.976562 6.984375 -26.71875 L 6.984375 -7.984375 C 6.984375 -6.722656 7.238281 -5.84375 7.75 -5.34375 C 8.269531 -4.851562 8.957031 -4.609375 9.8125 -4.609375 C 10.675781 -4.609375 11.363281 -4.851562 11.875 -5.34375 C 12.382812 -5.84375 12.640625 -6.722656 12.640625 -7.984375 L 12.640625 -14.375 L 10.15625 -14.375 Z M 10.15625 -19.328125 "/></g></g></g><g fill="#ffffff" fill-opacity="1"><g transform="translate(182.899841, 41.076678)"><g><path d="M 1.984375 -34.703125 L 7.4375 -34.703125 L 7.4375 0 L 1.984375 0 Z M 1.984375 -34.703125 "/></g></g></g><g fill="#ffffff" fill-opacity="1"><g transform="translate(192.319162, 41.076678)"><g><path d="M 19.640625 0 L 14.125 0 L 13.1875 -6.296875 L 6.5 -6.296875 L 5.546875 0 L 0.546875 0 L 6.09375 -34.703125 L 14.078125 -34.703125 Z M 7.1875 -11 L 12.4375 -11 L 9.8125 -28.5625 Z M 7.1875 -11 "/></g></g></g><g fill="#ffffff" fill-opacity="1"><g transform="translate(130.136978, 67.42349)"><g><path d="M 4.421875 -2.78125 L 6.234375 -15.046875 L 8.40625 -15.046875 L 6.078125 0 L 2.5625 0 L 0.234375 -15.046875 L 2.625 -15.046875 Z M 4.421875 -2.78125 "/></g></g></g><g fill="#ffffff" fill-opacity="1"><g transform="translate(138.780342, 67.42349)"><g/></g></g><g fill="#ffffff" fill-opacity="1"><g transform="translate(142.112984, 67.42349)"><g><path d="M 0.21875 -15.046875 L 7.53125 -15.046875 L 7.53125 -12.90625 L 5.046875 -12.90625 L 5.046875 0 L 2.6875 0 L 2.6875 -12.90625 L 0.21875 -12.90625 Z M 0.21875 -15.046875 "/></g></g></g><g fill="#ffffff" fill-opacity="1"><g transform="translate(149.853315, 67.42349)"><g><path d="M 8.515625 0 L 6.125 0 L 5.71875 -2.734375 L 2.8125 -2.734375 L 2.40625 0 L 0.234375 0 L 2.640625 -15.046875 L 6.109375 -15.046875 Z M 3.125 -4.765625 L 5.390625 -4.765625 L 4.25 -12.390625 Z M 3.125 -4.765625 "/></g></g></g><g fill="#ffffff" fill-opacity="1"><g transform="translate(158.604187, 67.42349)"><g><path d="M 0.859375 -15.046875 L 3.21875 -15.046875 L 3.21875 -2.15625 L 7.109375 -2.15625 L 7.109375 0 L 0.859375 0 Z M 0.859375 -15.046875 "/></g></g></g><g clip-path="url(#id4)"><path fill="#00c2cb" d="M 141.644531 52.757812 L 141.644531 68.179688 L 139.308594 68.179688 L 139.308594 52.757812 L 141.644531 52.757812 " fill-opacity="1" fill-rule="nonzero"/></g></svg>